<?xml version="1.0" encoding="UTF-8"?>
<svg width="274px" height="352px" viewBox="0 0 274 352" version="1.1" xmlns="http://www.w3.org/2000/svg" xmlns:xlink="http://www.w3.org/1999/xlink">
    <!-- Generator: Sketch 50.2 (55047) - http://www.bohemiancoding.com/sketch -->
    <title>arrow_c_up_icon_128</title>
    <desc>Created with Sketch.</desc>
    <defs></defs>
    <g id="Page-1" stroke="none" stroke-width="1" fill="none" fill-rule="evenodd">
        <g id="arrow_c_up_icon_128" fill="#000000" fill-rule="nonzero">
            <path d="M9.4,109.3 L114.4,9 C120.2,3 128.1,0 136.8,0 C145.5,0 153.3,3 159.2,9 L264.6,109.3 C277.1,121.2 277.1,140.6 264.6,152.5 C252.1,164.4 231.9,164.4 219.4,152.5 L169,104.4 L169,321.4 C169,338.3 154.7,352 137,352 C119.3,352 105,338.3 105,321.4 L105,104.4 L54.6,152.6 C42.1,164.5 21.9,164.5 9.4,152.6 C-3.1,140.6 -3.1,121.3 9.4,109.3 Z" id="Shape"></path>
        </g>
    </g>
</svg>